ffmpeg started on 2025-05-26 at 18:04:18
Report written to "D:\Convert\FFMetrics\reports\ssim_report-6.txt"
Log level: 32
Command line:
ffmpeg -hide_banner -nostdin -i "G:\\\xc0\xed\xe8\xec\xe5\\\xce\xed\xe3\xee\xe8\xed\xe3\xe8\\!_34_\xc2\xe5\xf1\xed\xe0_2024\\DreamCast\\\xc4\xe2\xe5 \xf1\xf2\xee\xf0\xee\xed\xfb \xf1\xfd\xe9\xfe \xf0\xe0\xe4\xe8\xee\\[DC] Seiyuu Radio no Uraomote - 02_Telegram_HEVC.mkv" -i "G:\\\xc0\xed\xe8\xec\xe5\\\xce\xed\xe3\xee\xe8\xed\xe3\xe8\\!_34_\xc2\xe5\xf1\xed\xe0_2024\\DreamCast\\\xc4\xe2\xe5 \xf1\xf2\xee\xf0\xee\xed\xfb \xf1\xfd\xe9\xfe \xf0\xe0\xe4\xe8\xee\\[DC] Seiyuu Radio no Uraomote - 02_Telegram.mp4" -lavfi "[0:v]settb=AVTB,setpts=PTS-STARTPTS,format=pix_fmts=yuv420p10,fps=24000/1001,scale=1920:1080:flags=bicubic[main];[1:v]settb=AVTB,setpts=PTS-STARTPTS,format=pix_fmts=yuv420p,fps=24000/1001,scale=1920:1080:flags=bicubic[ref];[main][ref]ssim=eof_action=endall:stats_file='D\\:/Convert/FFMetrics/logs/ssim_logfile-6.txt'" -f null -
Input #0, matroska,webm, from 'G:\Аниме\Онгоинги\!_34_Весна_2024\DreamCast\Две стороны сэйю радио\[DC] Seiyuu Radio no Uraomote - 02_Telegram_HEVC.mkv':
  Metadata:
    COMPATIBLE_BRANDS: isomiso2avc1mp41
    MAJOR_BRAND     : isom
    MINOR_VERSION   : 512
    ENCODER         : Lavf61.7.100
  Duration: 00:23:46.77, start: -0.021000, bitrate: 983 kb/s
  Stream #0:0: Video: hevc (Main 10), yuv420p10le(tv, bt709, progressive), 1920x1080 [SAR 1:1 DAR 16:9], 23.98 fps, 23.98 tbr, 1k tbn (default)
      Metadata:
        HANDLER_NAME    : VideoHandler
        VENDOR_ID       : [0][0][0][0]
        ENCODER         : Lavc61.19.100 libx265
        BPS             : 786713
        DURATION        : 00:23:46.591708333
        NUMBER_OF_FRAMES: 34204
        NUMBER_OF_BYTES : 140289794
        _STATISTICS_WRITING_APP: mkvpropedit v66.0.0 ('Josie') 64-bit
        _STATISTICS_WRITING_DATE_UTC: 2025-05-26 07:57:59
        _STATISTICS_TAGS: BPS DURATION NUMBER_OF_FRAMES NUMBER_OF_BYTES
  Stream #0:1: Audio: aac (LC), 48000 Hz, stereo, fltp (default)
      Metadata:
        HANDLER_NAME    : SoundHandler
        VENDOR_ID       : [0][0][0][0]
        ENCODER         : Lavc61.19.100 aac
        BPS             : 193168
        DURATION        : 00:23:46.773000000
        NUMBER_OF_FRAMES: 66881
        NUMBER_OF_BYTES : 34450933
        _STATISTICS_WRITING_APP: mkvpropedit v66.0.0 ('Josie') 64-bit
        _STATISTICS_WRITING_DATE_UTC: 2025-05-26 07:57:59
        _STATISTICS_TAGS: BPS DURATION NUMBER_OF_FRAMES NUMBER_OF_BYTES
Input #1, mov,mp4,m4a,3gp,3g2,mj2, from 'G:\Аниме\Онгоинги\!_34_Весна_2024\DreamCast\Две стороны сэйю радио\[DC] Seiyuu Radio no Uraomote - 02_Telegram.mp4':
  Metadata:
    major_brand     : isom
    minor_version   : 512
    compatible_brands: isomiso2avc1mp41
    encoder         : Lavf60.16.100
  Duration: 00:23:46.72, start: 0.000000, bitrate: 3683 kb/s
  Stream #1:0[0x1](und): Video: h264 (High) (avc1 / 0x31637661), yuv420p(tv, bt709, progressive), 1920x1080 [SAR 1:1 DAR 16:9], 3535 kb/s, 23.98 fps, 23.98 tbr, 24k tbn (default)
      Metadata:
        handler_name    : VideoHandler
        vendor_id       : [0][0][0][0]
        encoder         : Lavc60.31.102 h264_qsv
  Stream #1:1[0x2](und): Audio: aac (HE-AACv2) (mp4a / 0x6134706D), 48000 Hz, stereo, fltp, 144 kb/s (default)
      Metadata:
        handler_name    : SoundHandler
        vendor_id       : [0][0][0][0]
Stream mapping:
  Stream #0:0 (hevc) -> settb:default
  Stream #1:0 (h264) -> settb:default
  ssim:default -> Stream #0:0 (wrapped_avframe)
  Stream #0:1 -> #0:1 (aac (native) -> pcm_s16le (native))
Output #0, null, to 'pipe:':
  Metadata:
    COMPATIBLE_BRANDS: isomiso2avc1mp41
    MAJOR_BRAND     : isom
    MINOR_VERSION   : 512
    encoder         : Lavf61.7.100
  Stream #0:0: Video: wrapped_avframe, yuv420p10le(tv, bt709, progressive), 1920x1080 [SAR 1:1 DAR 16:9], q=2-31, 200 kb/s, 23.98 fps, 23.98 tbn
      Metadata:
        encoder         : Lavc61.19.100 wrapped_avframe
  Stream #0:1: Audio: pcm_s16le, 48000 Hz, stereo, s16, 1536 kb/s (default)
      Metadata:
        HANDLER_NAME    : SoundHandler
        VENDOR_ID       : [0][0][0][0]
        _STATISTICS_TAGS: BPS DURATION NUMBER_OF_FRAMES NUMBER_OF_BYTES
        BPS             : 193168
        DURATION        : 00:23:46.773000000
        NUMBER_OF_FRAMES: 66881
        NUMBER_OF_BYTES : 34450933
        _STATISTICS_WRITING_APP: mkvpropedit v66.0.0 ('Josie') 64-bit
        _STATISTICS_WRITING_DATE_UTC: 2025-05-26 07:57:59
        encoder         : Lavc61.19.100 pcm_s16le
frame=  184 fps=0.0 q=-0.0 size=N/A time=00:00:07.67 bitrate=N/A speed=15.1x    frame=  457 fps=448 q=-0.0 size=N/A time=00:00:19.06 bitrate=N/A speed=18.7x    frame=  704 fps=456 q=-0.0 size=N/A time=00:00:29.36 bitrate=N/A speed=  19x    frame=  973 fps=473 q=-0.0 size=N/A time=00:00:40.58 bitrate=N/A speed=19.7x    frame= 1241 fps=482 q=-0.0 size=N/A time=00:00:51.76 bitrate=N/A speed=20.1x    frame= 1505 fps=489 q=-0.0 size=N/A time=00:01:02.77 bitrate=N/A speed=20.4x    frame= 1767 fps=490 q=-0.0 size=N/A time=00:01:13.69 bitrate=N/A speed=20.5x    frame= 2052 fps=499 q=-0.0 size=N/A time=00:01:25.58 bitrate=N/A speed=20.8x    frame= 2292 fps=495 q=-0.0 size=N/A time=00:01:35.59 bitrate=N/A speed=20.6x    frame= 2522 fps=491 q=-0.0 size=N/A time=00:01:45.18 bitrate=N/A speed=20.5x    frame= 2772 fps=489 q=-0.0 size=N/A time=00:01:55.61 bitrate=N/A speed=20.4x    frame= 2964 fps=479 q=-0.0 size=N/A time=00:02:03.62 bitrate=N/A speed=  20x    frame= 3075 fps=459 q=-0.0 size=N/A time=00:02:08.25 bitrate=N/A speed=19.2x    frame= 3292 fps=456 q=-0.0 size=N/A time=00:02:17.30 bitrate=N/A speed=  19x    frame= 3492 fps=452 q=-0.0 size=N/A time=00:02:25.64 bitrate=N/A speed=18.9x    frame= 3717 fps=451 q=-0.0 size=N/A time=00:02:35.02 bitrate=N/A speed=18.8x    frame= 3951 fps=451 q=-0.0 size=N/A time=00:02:44.78 bitrate=N/A speed=18.8x    frame= 4141 fps=446 q=-0.0 size=N/A time=00:02:52.71 bitrate=N/A speed=18.6x    frame= 4417 fps=451 q=-0.0 size=N/A time=00:03:04.22 bitrate=N/A speed=18.8x    frame= 4690 fps=454 q=-0.0 size=N/A time=00:03:15.61 bitrate=N/A speed=18.9x    frame= 4974 fps=459 q=-0.0 size=N/A time=00:03:27.45 bitrate=N/A speed=19.2x    frame= 5252 fps=462 q=-0.0 size=N/A time=00:03:39.05 bitrate=N/A speed=19.3x    frame= 5524 fps=466 q=-0.0 size=N/A time=00:03:50.39 bitrate=N/A speed=19.4x    frame= 5804 fps=469 q=-0.0 size=N/A time=00:04:02.07 bitrate=N/A speed=19.5x    frame= 6060 fps=470 q=-0.0 size=N/A time=00:04:12.75 bitrate=N/A speed=19.6x    frame= 6331 fps=472 q=-0.0 size=N/A time=00:04:24.05 bitrate=N/A speed=19.7x    frame= 6608 fps=474 q=-0.0 size=N/A time=00:04:35.60 bitrate=N/A speed=19.8x    frame= 6877 fps=476 q=-0.0 size=N/A time=00:04:46.82 bitrate=N/A speed=19.9x    frame= 7136 fps=477 q=-0.0 size=N/A time=00:04:57.63 bitrate=N/A speed=19.9x    frame= 7366 fps=476 q=-0.0 size=N/A time=00:05:07.22 bitrate=N/A speed=19.8x    frame= 7621 fps=477 q=-0.0 size=N/A time=00:05:17.85 bitrate=N/A speed=19.9x    frame= 7891 fps=478 q=-0.0 size=N/A time=00:05:29.12 bitrate=N/A speed=19.9x    frame= 8174 fps=480 q=-0.0 size=N/A time=00:05:40.92 bitrate=N/A speed=  20x    frame= 8438 fps=481 q=-0.0 size=N/A time=00:05:51.93 bitrate=N/A speed=20.1x    frame= 8722 fps=483 q=-0.0 size=N/A time=00:06:03.78 bitrate=N/A speed=20.2x    frame= 8979 fps=484 q=-0.0 size=N/A time=00:06:14.49 bitrate=N/A speed=20.2x    frame= 9218 fps=483 q=-0.0 size=N/A time=00:06:24.46 bitrate=N/A speed=20.2x    frame= 9470 fps=483 q=-0.0 size=N/A time=00:06:34.97 bitrate=N/A speed=20.2x    frame= 9720 fps=483 q=-0.0 size=N/A time=00:06:45.40 bitrate=N/A speed=20.1x    frame= 9952 fps=482 q=-0.0 size=N/A time=00:06:55.08 bitrate=N/A speed=20.1x    frame=10235 fps=484 q=-0.0 size=N/A time=00:07:06.88 bitrate=N/A speed=20.2x    frame=10495 fps=485 q=-0.0 size=N/A time=00:07:17.72 bitrate=N/A speed=20.2x    frame=10753 fps=485 q=-0.0 size=N/A time=00:07:28.48 bitrate=N/A speed=20.2x    frame=10989 fps=484 q=-0.0 size=N/A time=00:07:38.33 bitrate=N/A speed=20.2x    frame=11276 fps=486 q=-0.0 size=N/A time=00:07:50.30 bitrate=N/A speed=20.3x    frame=11535 fps=486 q=-0.0 size=N/A time=00:08:01.10 bitrate=N/A speed=20.3x    frame=11789 fps=486 q=-0.0 size=N/A time=00:08:11.69 bitrate=N/A speed=20.3x    frame=12055 fps=487 q=-0.0 size=N/A time=00:08:22.79 bitrate=N/A speed=20.3x    frame=12328 fps=488 q=-0.0 size=N/A time=00:08:34.18 bitrate=N/A speed=20.3x    frame=12599 fps=489 q=-0.0 size=N/A time=00:08:45.48 bitrate=N/A speed=20.4x    frame=12851 fps=489 q=-0.0 size=N/A time=00:08:55.99 bitrate=N/A speed=20.4x    frame=13106 fps=489 q=-0.0 size=N/A time=00:09:06.62 bitrate=N/A speed=20.4x    frame=13380 fps=489 q=-0.0 size=N/A time=00:09:18.05 bitrate=N/A speed=20.4x    frame=13592 fps=488 q=-0.0 size=N/A time=00:09:26.89 bitrate=N/A speed=20.3x    frame=13877 fps=489 q=-0.0 size=N/A time=00:09:38.78 bitrate=N/A speed=20.4x    frame=14160 fps=490 q=-0.0 size=N/A time=00:09:50.59 bitrate=N/A speed=20.4x    frame=14424 fps=491 q=-0.0 size=N/A time=00:10:01.60 bitrate=N/A speed=20.5x    frame=14720 fps=492 q=-0.0 size=N/A time=00:10:13.94 bitrate=N/A speed=20.5x    frame=15002 fps=493 q=-0.0 size=N/A time=00:10:25.70 bitrate=N/A speed=20.6x    frame=15275 fps=494 q=-0.0 size=N/A time=00:10:37.09 bitrate=N/A speed=20.6x    frame=15545 fps=494 q=-0.0 size=N/A time=00:10:48.35 bitrate=N/A speed=20.6x    frame=15810 fps=494 q=-0.0 size=N/A time=00:10:59.40 bitrate=N/A speed=20.6x    frame=16092 fps=495 q=-0.0 size=N/A time=00:11:11.17 bitrate=N/A speed=20.7x    frame=16376 fps=496 q=-0.0 size=N/A time=00:11:23.01 bitrate=N/A speed=20.7x    frame=16634 fps=496 q=-0.0 size=N/A time=00:11:33.77 bitrate=N/A speed=20.7x    frame=16892 fps=496 q=-0.0 size=N/A time=00:11:44.53 bitrate=N/A speed=20.7x    frame=17132 fps=496 q=-0.0 size=N/A time=00:11:54.54 bitrate=N/A speed=20.7x    frame=17400 fps=496 q=-0.0 size=N/A time=00:12:05.72 bitrate=N/A speed=20.7x    frame=17665 fps=496 q=-0.0 size=N/A time=00:12:16.77 bitrate=N/A speed=20.7x    frame=17917 fps=496 q=-0.0 size=N/A time=00:12:27.28 bitrate=N/A speed=20.7x    frame=18204 fps=497 q=-0.0 size=N/A time=00:12:39.25 bitrate=N/A speed=20.7x    frame=18441 fps=497 q=-0.0 size=N/A time=00:12:49.14 bitrate=N/A speed=20.7x    frame=18723 fps=497 q=-0.0 size=N/A time=00:13:00.90 bitrate=N/A speed=20.7x    frame=19006 fps=498 q=-0.0 size=N/A time=00:13:12.70 bitrate=N/A speed=20.8x    frame=19251 fps=498 q=-0.0 size=N/A time=00:13:22.92 bitrate=N/A speed=20.8x    frame=19496 fps=497 q=-0.0 size=N/A time=00:13:33.14 bitrate=N/A speed=20.7x    frame=19780 fps=498 q=-0.0 size=N/A time=00:13:44.99 bitrate=N/A speed=20.8x    frame=20041 fps=498 q=-0.0 size=N/A time=00:13:55.87 bitrate=N/A speed=20.8x    frame=20322 fps=499 q=-0.0 size=N/A time=00:14:07.59 bitrate=N/A speed=20.8x    frame=20572 fps=499 q=-0.0 size=N/A time=00:14:18.02 bitrate=N/A speed=20.8x    frame=20840 fps=499 q=-0.0 size=N/A time=00:14:29.20 bitrate=N/A speed=20.8x    frame=21090 fps=499 q=-0.0 size=N/A time=00:14:39.62 bitrate=N/A speed=20.8x    frame=21343 fps=499 q=-0.0 size=N/A time=00:14:50.18 bitrate=N/A speed=20.8x    frame=21600 fps=499 q=-0.0 size=N/A time=00:15:00.90 bitrate=N/A speed=20.8x    frame=21871 fps=499 q=-0.0 size=N/A time=00:15:12.20 bitrate=N/A speed=20.8x    frame=22126 fps=499 q=-0.0 size=N/A time=00:15:22.83 bitrate=N/A speed=20.8x    frame=22385 fps=499 q=-0.0 size=N/A time=00:15:33.64 bitrate=N/A speed=20.8x    frame=22612 fps=498 q=-0.0 size=N/A time=00:15:43.10 bitrate=N/A speed=20.8x    frame=22861 fps=498 q=-0.0 size=N/A time=00:15:53.49 bitrate=N/A speed=20.8x    frame=23081 fps=497 q=-0.0 size=N/A time=00:16:02.67 bitrate=N/A speed=20.7x    frame=23309 fps=497 q=-0.0 size=N/A time=00:16:12.17 bitrate=N/A speed=20.7x    frame=23571 fps=497 q=-0.0 size=N/A time=00:16:23.10 bitrate=N/A speed=20.7x    frame=23846 fps=497 q=-0.0 size=N/A time=00:16:34.57 bitrate=N/A speed=20.7x    frame=24126 fps=498 q=-0.0 size=N/A time=00:16:46.25 bitrate=N/A speed=20.8x    frame=24368 fps=497 q=-0.0 size=N/A time=00:16:56.34 bitrate=N/A speed=20.7x    frame=24628 fps=498 q=-0.0 size=N/A time=00:17:07.19 bitrate=N/A speed=20.8x    frame=24880 fps=497 q=-0.0 size=N/A time=00:17:17.70 bitrate=N/A speed=20.7x    frame=25160 fps=498 q=-0.0 size=N/A time=00:17:29.38 bitrate=N/A speed=20.8x    frame=25406 fps=497 q=-0.0 size=N/A time=00:17:39.64 bitrate=N/A speed=20.7x    frame=25661 fps=497 q=-0.0 size=N/A time=00:17:50.27 bitrate=N/A speed=20.7x    frame=25922 fps=497 q=-0.0 size=N/A time=00:18:01.16 bitrate=N/A speed=20.7x    frame=26162 fps=497 q=-0.0 size=N/A time=00:18:11.17 bitrate=N/A speed=20.7x    frame=26415 fps=497 q=-0.0 size=N/A time=00:18:21.72 bitrate=N/A speed=20.7x    frame=26682 fps=497 q=-0.0 size=N/A time=00:18:32.86 bitrate=N/A speed=20.7x    frame=26927 fps=497 q=-0.0 size=N/A time=00:18:43.08 bitrate=N/A speed=20.7x    frame=27199 fps=497 q=-0.0 size=N/A time=00:18:54.42 bitrate=N/A speed=20.7x    frame=27462 fps=497 q=-0.0 size=N/A time=00:19:05.39 bitrate=N/A speed=20.7x    frame=27697 fps=497 q=-0.0 size=N/A time=00:19:15.19 bitrate=N/A speed=20.7x    frame=27954 fps=497 q=-0.0 size=N/A time=00:19:25.91 bitrate=N/A speed=20.7x    frame=28226 fps=497 q=-0.0 size=N/A time=00:19:37.25 bitrate=N/A speed=20.7x    frame=28429 fps=497 q=-0.0 size=N/A time=00:19:45.72 bitrate=N/A speed=20.7x    frame=28670 fps=496 q=-0.0 size=N/A time=00:19:55.77 bitrate=N/A speed=20.7x    frame=28910 fps=496 q=-0.0 size=N/A time=00:20:05.78 bitrate=N/A speed=20.7x    frame=29149 fps=496 q=-0.0 size=N/A time=00:20:15.75 bitrate=N/A speed=20.7x    frame=29356 fps=495 q=-0.0 size=N/A time=00:20:24.38 bitrate=N/A speed=20.6x    frame=29571 fps=494 q=-0.0 size=N/A time=00:20:33.35 bitrate=N/A speed=20.6x    frame=29782 fps=494 q=-0.0 size=N/A time=00:20:42.15 bitrate=N/A speed=20.6x    frame=30000 fps=493 q=-0.0 size=N/A time=00:20:51.25 bitrate=N/A speed=20.6x    frame=30176 fps=492 q=-0.0 size=N/A time=00:20:58.59 bitrate=N/A speed=20.5x    frame=30428 fps=492 q=-0.0 size=N/A time=00:21:09.10 bitrate=N/A speed=20.5x    frame=30713 fps=492 q=-0.0 size=N/A time=00:21:20.98 bitrate=N/A speed=20.5x    frame=31005 fps=493 q=-0.0 size=N/A time=00:21:33.16 bitrate=N/A speed=20.5x    frame=31264 fps=493 q=-0.0 size=N/A time=00:21:43.96 bitrate=N/A speed=20.6x    frame=31531 fps=493 q=-0.0 size=N/A time=00:21:55.10 bitrate=N/A speed=20.6x    frame=31807 fps=493 q=-0.0 size=N/A time=00:22:06.61 bitrate=N/A speed=20.6x    frame=32064 fps=493 q=-0.0 size=N/A time=00:22:17.33 bitrate=N/A speed=20.6x    frame=32290 fps=493 q=-0.0 size=N/A time=00:22:26.76 bitrate=N/A speed=20.6x    frame=32495 fps=492 q=-0.0 size=N/A time=00:22:35.31 bitrate=N/A speed=20.5x    frame=32714 fps=492 q=-0.0 size=N/A time=00:22:44.44 bitrate=N/A speed=20.5x    frame=32945 fps=491 q=-0.0 size=N/A time=00:22:54.08 bitrate=N/A speed=20.5x    frame=33138 fps=490 q=-0.0 size=N/A time=00:23:02.13 bitrate=N/A speed=20.5x    frame=33347 fps=490 q=-0.0 size=N/A time=00:23:10.84 bitrate=N/A speed=20.4x    frame=33571 fps=489 q=-0.0 size=N/A time=00:23:20.19 bitrate=N/A speed=20.4x    frame=33791 fps=489 q=-0.0 size=N/A time=00:23:29.36 bitrate=N/A speed=20.4x    frame=34026 fps=489 q=-0.0 size=N/A time=00:23:39.16 bitrate=N/A speed=20.4x    [Parsed_ssim_10 @ 000002780f7d3c00] SSIM Y:0.995506 (23.473832) U:0.994134 (22.316785) V:0.993870 (22.125075) All:0.995005 (23.014428)
[out#0/null @ 0000027802713b80] video:14697KiB audio:267524KiB subtitle:0KiB other streams:0KiB global headers:0KiB muxing overhead: unknown
frame=34204 fps=489 q=-0.0 Lsize=N/A time=00:23:46.59 bitrate=N/A speed=20.4x    
